HIERARCHY
ROOT Hips
{
	OFFSET 0.00000 0.00000 0.00000
	CHANNELS 6 Xposition Yposition Zposition Zrotation Yrotation Xrotation 
	JOINT LHipJoint
	{
		OFFSET 0 0 0
		CHANNELS 3 Zrotation Yrotation Xrotation
		JOINT LeftUpLeg
		{
			OFFSET 1.62964 -1.40469 0.78906
			CHANNELS 3 Zrotation Yrotation Xrotation
			JOINT LeftLeg
			{
				OFFSET 2.29640 -6.30932 0.00000
				CHANNELS 3 Zrotation Yrotation Xrotation
				JOINT LeftFoot
				{
					OFFSET 2.29451 -6.30412 0.00000
					CHANNELS 3 Zrotation Yrotation Xrotation
					JOINT LeftToeBase
					{
						OFFSET 0.03611 -0.09921 1.56387
						CHANNELS 3 Zrotation Yrotation Xrotation
						End Site
						{
							OFFSET 0.00000 -0.00000 0.80291
						}
					}
				}
			}
		}
	}
	JOINT RHipJoint
	{
		OFFSET 0 0 0
		CHANNELS 3 Zrotation Yrotation Xrotation
		JOINT RightUpLeg
		{
			OFFSET -1.73712 -1.40469 0.78906
			CHANNELS 3 Zrotation Yrotation Xrotation
			JOINT RightLeg
			{
				OFFSET -2.28137 -6.26801 0.00000
				CHANNELS 3 Zrotation Yrotation Xrotation
				JOINT RightFoot
				{
					OFFSET -2.28681 -6.28298 0.00000
					CHANNELS 3 Zrotation Yrotation Xrotation
					JOINT RightToeBase
					{
						OFFSET -0.15927 -0.43759 1.61103
						CHANNELS 3 Zrotation Yrotation Xrotation
						End Site
						{
							OFFSET -0.00000 -0.00000 0.84630
						}
					}
				}
			}
		}
	}
	JOINT LowerBack
	{
		OFFSET 0 0 0
		CHANNELS 3 Zrotation Yrotation Xrotation
		JOINT Spine
		{
			OFFSET -0.04227 2.04338 -0.00225
			CHANNELS 3 Zrotation Yrotation Xrotation
			JOINT Spine1
			{
				OFFSET -0.02148 2.04482 -0.04273
				CHANNELS 3 Zrotation Yrotation Xrotation
				JOINT Neck
				{
					OFFSET 0 0 0
					CHANNELS 3 Zrotation Yrotation Xrotation
					JOINT Neck1
					{
						OFFSET 0.09180 1.44629 0.19359
						CHANNELS 3 Zrotation Yrotation Xrotation
						JOINT Head
						{
							OFFSET 0.00887 1.40645 0.14750
							CHANNELS 3 Zrotation Yrotation Xrotation
							End Site
							{
								OFFSET -0.00669 1.50671 0.03707
							}
						}
					}
				}
				JOINT LeftShoulder
				{
					OFFSET 0 0 0
					CHANNELS 3 Zrotation Yrotation Xrotation
					JOINT LeftArm
					{
						OFFSET 2.17674 1.86763 -0.06520
						CHANNELS 3 Zrotation Yrotation Xrotation
						JOINT LeftForeArm
						{
							OFFSET 4.65776 -0.00000 0.00000
							CHANNELS 3 Zrotation Yrotation Xrotation
							JOINT LeftHand
							{
								OFFSET 3.55539 -0.00000 0.00000
								CHANNELS 3 Zrotation Yrotation Xrotation
								JOINT LeftFingerBase
								{
									OFFSET 0 0 0
									CHANNELS 3 Zrotation Yrotation Xrotation
									JOINT LeftHandIndex1
									{
										OFFSET 0.70726 -0.00000 0.00000
										CHANNELS 3 Zrotation Yrotation Xrotation
										End Site
										{
											OFFSET 0.57022 -0.00000 0.00000
										}
									}
								}
								JOINT LThumb
								{
									OFFSET 0 0 0
									CHANNELS 3 Zrotation Yrotation Xrotation
									End Site
									{
										OFFSET 0.57892 -0.00000 0.57892
									}
								}
							}
						}
					}
				}
				JOINT RightShoulder
				{
					OFFSET 0 0 0
					CHANNELS 3 Zrotation Yrotation Xrotation
					JOINT RightArm
					{
						OFFSET -2.80694 1.55459 -0.32496
						CHANNELS 3 Zrotation Yrotation Xrotation
						JOINT RightForeArm
						{
							OFFSET -4.71925 -0.00000 -0.00000
							CHANNELS 3 Zrotation Yrotation Xrotation
							JOINT RightHand
							{
								OFFSET -3.56990 -0.00000 0.00000
								CHANNELS 3 Zrotation Yrotation Xrotation
								JOINT RightFingerBase
								{
									OFFSET 0 0 0
									CHANNELS 3 Zrotation Yrotation Xrotation
									JOINT RightHandIndex1
									{
										OFFSET -0.50776 -0.00000 0.00000
										CHANNELS 3 Zrotation Yrotation Xrotation
										End Site
										{
											OFFSET -0.40937 -0.00000 0.00000
										}
									}
								}
								JOINT RThumb
								{
									OFFSET 0 0 0
									CHANNELS 3 Zrotation Yrotation Xrotation
									End Site
									{
										OFFSET -0.41562 -0.00000 0.41562
									}
								}
							}
						}
					}
				}
			}
		}
	}
}
MOTION
Frames: 12
Frame Time: .0083333
16.5407 16.3633 21.1396 0 0 0 0 0 0 -21 0 0 0 0 0 0 0 0 0 0 0 0 0 0 21 0 0 0 0 0 0 0 0 0 0 0 0 0 0 0 0 0 0 0 0 0 0 -16 0 0 21 0 0 11 0 0 0 -8 0 0 0 0 0 0 0 0 0 0 0 0 0 0 0 0 0 0 0 0 8 0 0 0 0 0 0 0 0 0 0 0 0 0 0 0 0 0
16.5407 16.3633 21.1396 172.7430 -1.5650 -153.1740 0.0000 0.0000 0.0000 -26.3744 -17.7817 -19.7195 0.2461 3.1922 8.8144 0.1890 -1.0867 -7.8998 5.4632 -13.8872 -42.7874 0.0000 0.0000 0.0000 13.0475 11.6721 -20.1242 -0.1247 -2.2764 6.2702 -0.9483 6.7416 -17.3786 -0.3590 3.8494 -10.6533 -12.5380 -3.2146 -33.8557 -1.3776 -0.1484 -1.3372 4.9682 -1.3217 15.7827 -0.2436 -2.7431 -6.0844 3.1116 -3.9908 7.0206 0.8653 -1.8951 3.4179 -0.0000 0.0000 0.0000 -86.0725 -1.6245 18.0419 9.4286 -15.8409 -1.3147 -0.0000 -0.0000 9.5685 23.4392 -13.6667 -5.8488 -7.1250 0.0000 -0.0000 -2.7070 15.1475 1.9077 -0.0000 0.0000 0.0000 91.8200 -1.5778 4.3146 -14.1370 22.9302 -2.8813 0.0000 -0.0000 -0.3636 -12.6954 -56.7344 10.6673 7.1250 -0.0000 -0.0000 81.8881 -76.5922 -68.0217
16.5420 16.3633 21.1408 172.7580 -1.6100 -153.2650 0.0000 0.0000 0.0000 -26.3379 -17.8409 -19.5952 0.2444 3.1815 8.7844 0.1889 -0.9668 -7.9241 5.4896 -13.9148 -42.8971 0.0000 0.0000 0.0000 13.0995 11.6768 -20.0217 -0.1250 -2.2790 6.2775 -0.9532 6.6311 -17.4202 -0.3837 3.9777 -11.0140 -12.5374 -3.2061 -33.7387 -1.3761 -0.1409 -1.3067 4.9772 -1.3141 15.7704 -0.2023 -2.7807 -6.1407 3.0750 -4.0443 7.0715 0.8424 -1.9209 3.4454 0.0000 -0.0000 0.0000 -86.0261 -1.6761 18.1075 9.4074 -15.8073 -1.3089 -0.0000 -0.0000 9.4631 23.5008 -13.8433 -5.9397 -7.1250 0.0000 -0.0000 -2.6752 14.9503 1.8966 0.0000 -0.0000 0.0000 91.8315 -1.4901 4.1116 -14.0636 22.8256 -2.8527 0.0000 -0.0000 -0.4962 -12.5614 -56.5099 10.5271 7.1250 -0.0000 -0.0000 80.9346 -76.5369 -67.0182
16.5427 16.3635 21.1393 172.8310 -1.6667 -153.3570 0.0000 0.0000 0.0000 -26.2602 -17.8085 -19.4797 0.2428 3.1709 8.7550 0.1896 -0.9280 -7.9474 5.5139 -13.9402 -42.9983 0.0000 0.0000 0.0000 13.2333 11.6776 -19.8874 -0.1245 -2.2750 6.2663 -0.9597 6.5265 -17.4783 -0.4311 4.2135 -11.6780 -12.4964 -3.2063 -33.6737 -1.3279 -0.1586 -1.2783 5.0053 -1.3168 15.7836 -0.1729 -2.8105 -6.1566 2.9814 -4.0808 7.1308 0.8043 -1.9409 3.4663 -0.0000 0.0000 0.0000 -86.0693 -1.6710 18.0401 9.3961 -15.7895 -1.3058 -0.0000 -0.0000 9.5011 23.5308 -13.8832 -5.9648 -7.1250 0.0000 -0.0000 -2.6571 14.9039 1.8864 -0.0000 0.0000 0.0000 91.7873 -1.4431 3.9902 -13.9932 22.7250 -2.8255 0.0000 -0.0000 -0.6635 -12.4590 -56.2730 10.4123 7.1250 -0.0000 -0.0000 79.9367 -76.4881 -65.9826
16.5407 16.3625 21.1402 172.9000 -1.6521 -153.3520 0.0000 0.0000 0.0000 -26.1946 -17.7569 -19.5116 0.2428 3.1712 8.7556 0.1893 -1.0450 -7.9157 5.3266 -13.7425 -42.2154 0.0000 0.0000 0.0000 13.2972 11.7183 -19.8732 -0.1236 -2.2668 6.2436 -0.9554 6.5536 -17.4396 -0.4106 4.1136 -11.3966 -12.4237 -3.1839 -33.7082 -1.3010 -0.1554 -1.2815 4.9986 -1.3112 15.7965 -0.2125 -2.8050 -6.1134 3.0062 -4.0706 7.1018 0.8205 -1.9367 3.4494 0.0000 0.0000 0.0000 -86.1144 -1.6301 17.9394 9.4026 -15.7998 -1.3076 -0.0000 -0.0000 9.5398 23.4699 -13.7479 -5.8912 -7.1250 0.0000 -0.0000 -2.6907 15.0565 1.9015 0.0000 0.0000 0.0000 91.7717 -1.4927 4.0293 -14.0147 22.7557 -2.8338 0.0000 -0.0000 -0.7859 -12.4566 -56.2612 10.4089 7.1250 -0.0000 -0.0000 79.8874 -76.4865 -65.9324
16.5390 16.3618 21.1409 172.9670 -1.6421 -153.3320 0.0000 0.0000 0.0000 -26.1136 -17.7745 -19.5447 0.2429 3.1719 8.7576 0.1883 -1.0347 -7.8954 5.4126 -13.8339 -42.5760 0.0000 0.0000 0.0000 13.3560 11.7500 -19.8765 -0.1222 -2.2534 6.2066 -0.9471 6.6171 -17.3646 -0.3496 3.7991 -10.5120 -12.3335 -3.1665 -33.7875 -1.2930 -0.1507 -1.2550 4.9614 -1.3064 15.8641 -0.3004 -2.7878 -6.0590 3.1255 -4.0455 7.0070 0.8774 -1.9234 3.4112 0.0000 0.0000 0.0000 -86.0963 -1.6639 18.0299 9.4042 -15.8022 -1.3080 -0.0000 -0.0000 9.3057 23.4894 -13.6435 -5.8531 -7.1250 0.0000 -0.0000 -2.6712 15.1667 1.8814 0.0000 0.0000 0.0000 91.7991 -1.4983 4.0788 -14.0688 22.8330 -2.8548 0.0000 -0.0000 -0.7987 -12.4621 -56.3221 10.4208 7.1250 -0.0000 -0.0000 80.1436 -76.4920 -66.1900
16.5381 16.3616 21.1416 173.0020 -1.6582 -153.3580 0.0000 0.0000 0.0000 -26.0440 -17.9027 -19.4586 0.2410 3.1593 8.7225 0.1872 -0.8230 -7.9221 5.1466 -13.5470 -41.4522 0.0000 0.0000 0.0000 13.4241 11.6893 -19.8722 -0.1216 -2.2482 6.1920 -0.9444 6.6242 -17.3393 -0.3580 3.8439 -10.6379 -12.2984 -3.1681 -33.7680 -1.2770 -0.1652 -1.2412 4.9559 -1.3097 15.8768 -0.3240 -2.7990 -6.0433 3.1409 -4.0609 7.0232 0.8860 -1.9313 3.4152 -0.0000 -0.0000 0.0000 -86.0827 -1.6409 18.2498 9.4271 -15.8385 -1.3143 -0.0000 -0.0000 8.8889 23.6164 -13.5111 -5.8326 -7.1250 0.0000 -0.0000 -2.5765 15.2951 1.8074 -0.0000 -0.0000 0.0000 91.8021 -1.5045 4.1541 -14.0992 22.8763 -2.8666 0.0000 -0.0000 -0.7302 -12.4894 -56.4317 10.4568 7.1250 -0.0000 -0.0000 80.6044 -76.5074 -66.6602
16.5368 16.3608 21.1445 173.0610 -1.6533 -153.3990 0.0000 0.0000 0.0000 -25.9621 -17.9756 -19.3835 0.2392 3.1476 8.6901 0.1881 -0.7066 -7.9706 5.0443 -13.4335 -41.0136 0.0000 0.0000 0.0000 13.5185 11.6223 -19.8926 -0.1230 -2.2606 6.2263 -0.9431 6.6611 -17.3288 -0.4125 4.1228 -11.4223 -12.2370 -3.1426 -33.6588 -1.2534 -0.1738 -1.2627 4.9501 -1.3038 15.8090 -0.3037 -2.8301 -6.0631 3.0769 -4.1037 7.1174 0.8587 -1.9537 3.4502 0.0000 0.0000 0.0000 -86.0914 -1.5410 18.3699 9.4623 -15.8941 -1.3239 -0.0000 -0.0000 8.6143 23.9364 -13.0861 -5.7393 -7.1250 0.0000 -0.0000 -2.3317 15.7185 1.6142 0.0000 0.0000 0.0000 91.7475 -1.5524 4.3012 -14.1047 22.8842 -2.8687 0.0000 -0.0000 -0.7571 -12.5265 -56.5107 10.4976 7.1250 -0.0000 -0.0000 80.9374 -76.5242 -67.0069
16.5359 16.3594 21.1473 173.1540 -1.6486 -153.4300 0.0000 0.0000 0.0000 -25.8803 -17.8875 -19.4198 0.2417 3.1636 8.7345 0.1886 -0.7849 -7.9620 5.1566 -13.5580 -41.4949 0.0000 0.0000 0.0000 13.6323 11.6417 -19.8928 -0.1245 -2.2749 6.2661 -0.9437 6.6769 -17.3343 -0.4440 4.2754 -11.8529 -12.1438 -3.1157 -33.5806 -1.2197 -0.1886 -1.2805 4.9356 -1.2997 15.7610 -0.3588 -2.8157 -6.0394 3.0983 -4.0810 7.1184 0.8769 -1.9434 3.4476 -0.0000 0.0000 0.0000 -86.1220 -1.4965 18.2840 9.4503 -15.8752 -1.3206 -0.0000 -0.0000 8.6254 24.2804 -12.7315 -5.6774 -7.1250 0.0000 -0.0000 -2.0738 16.0649 1.4199 -0.0000 0.0000 0.0000 91.6890 -1.6017 4.3791 -14.0987 22.8756 -2.8664 0.0000 -0.0000 -0.8311 -12.5123 -56.4763 10.4815 7.1250 -0.0000 -0.0000 80.7925 -76.5177 -66.8567
16.5356 16.3588 21.1476 173.2240 -1.6972 -153.4820 0.0000 0.0000 0.0000 -25.8029 -17.8917 -19.3756 0.2429 3.1718 8.7575 0.1898 -0.7800 -7.9898 5.2670 -13.6783 -41.9638 0.0000 0.0000 0.0000 13.7360 11.6631 -19.8073 -0.1236 -2.2662 6.2420 -0.9463 6.6182 -17.3570 -0.4456 4.2832 -11.8747 -12.0777 -3.1232 -33.5320 -1.1862 -0.2294 -1.2775 4.9229 -1.3109 15.7538 -0.4032 -2.7825 -5.9923 3.1425 -4.0354 7.0928 0.9021 -1.9212 3.4312 0.0000 -0.0000 0.0000 -86.1266 -1.4818 18.2756 9.4252 -15.8354 -1.3137 -0.0000 -0.0000 8.6109 24.5158 -12.7154 -5.7323 -7.1250 0.0000 -0.0000 -1.9102 16.0566 1.3081 0.0000 -0.0000 0.0000 91.6705 -1.6880 4.4384 -14.1325 22.9239 -2.8795 0.0000 -0.0000 -0.8598 -12.5104 -56.4819 10.4806 7.1250 -0.0000 -0.0000 80.8157 -76.5173 -66.8792
16.5348 16.3588 21.1467 173.3020 -1.7691 -153.5300 0.0000 0.0000 0.0000 -25.6955 -17.9613 -19.2878 0.2419 3.1652 8.7391 0.1926 -0.7160 -8.0655 5.3252 -13.7409 -42.2092 0.0000 0.0000 0.0000 13.8680 11.6228 -19.7297 -0.1226 -2.2571 6.2167 -0.9508 6.6008 -17.3980 -0.4888 4.4829 -12.4393 -11.9895 -3.1385 -33.5191 -1.1608 -0.2783 -1.2527 4.8853 -1.3259 15.7897 -0.3220 -2.7771 -6.0149 3.0699 -4.0328 7.1557 0.8637 -1.9200 3.4531 0.0000 0.0000 0.0000 -86.0991 -1.5171 18.2877 9.3735 -15.7537 -1.2997 -0.0000 -0.0000 8.5381 24.5883 -12.7659 -5.7737 -7.1250 0.0000 -0.0000 -1.8633 15.9936 1.2785 0.0000 0.0000 0.0000 91.6818 -1.7266 4.4387 -14.1453 22.9420 -2.8845 0.0000 -0.0000 -0.8442 -12.4465 -56.3094 10.4062 7.1250 -0.0000 -0.0000 80.0902 -76.4856 -66.1305
16.5337 16.3583 21.1463 173.3720 -1.7971 -153.5450 0.0000 0.0000 0.0000 -25.6232 -17.9199 -19.2883 0.2424 3.1682 8.7475 0.1915 -0.7653 -8.0287 5.2866 -13.6995 -42.0466 0.0000 0.0000 0.0000 13.9733 11.5782 -19.7268 -0.1233 -2.2638 6.2352 -0.9528 6.6492 -17.4176 -0.5046 4.5536 -12.6396 -11.9118 -3.1346 -33.5373 -1.1497 -0.2927 -1.2239 4.8513 -1.3278 15.8374 -0.1911 -2.8220 -6.1262 2.9503 -4.0970 7.2199 0.7965 -1.9509 3.4912 0.0000 -0.0000 0.0000 -86.0846 -1.5674 18.2272 9.3358 -15.6940 -1.2895 -0.0000 -0.0000 8.5114 24.5310 -12.7938 -5.7709 -7.1250 0.0000 -0.0000 -1.9045 15.9696 1.3078 0.0000 -0.0000 0.0000 91.7027 -1.7034 4.3918 -14.1480 22.9459 -2.8856 0.0000 -0.0000 -0.8007 -12.3681 -56.1088 10.3163 7.1250 -0.0000 -0.0000 79.2515 -76.4442 -65.2627
